<?xml version="1.0" encoding="utf-8"?>
<!-- Generator: Adobe Illustrator 18.1.1, SVG Export Plug-In . SVG Version: 6.00 Build 0)  -->
<svg version="1.1" id="Layer_1" xmlns="http://www.w3.org/2000/svg" xmlns:xlink="http://www.w3.org/1999/xlink" x="0px" y="0px"
	 viewBox="0 0 184.5 100.1" enable-background="new 0 0 184.5 100.1" xml:space="preserve">
<g>
	<g>
		<path fill="#000000" stroke="#000000" stroke-width="0.4036" stroke-miterlimit="10" d="M117.5,0.2h9.8v38.3
			c0,9.4,0.5,15.8,1.4,19.3c1.4,5,4.1,9,8,11.9c4,2.9,8.7,4.4,14.2,4.4c5.5,0,10.1-1.4,14-4.3c3.8-2.8,6.5-6.6,7.9-11.2
			c1-3.2,1.5-9.9,1.5-20.2V0.2h10v40.3c0,11.3-1.2,19.8-3.7,25.6c-2.5,5.7-6.2,10.2-11.1,13.5c-4.9,3.2-11.1,4.9-18.6,4.9
			c-7.4,0-13.6-1.6-18.6-4.9c-5-3.2-8.7-7.8-11.2-13.6c-2.5-5.8-3.7-14.6-3.7-26.2V0.2z"/>
	</g>
	<g>
		<path fill="#000000" stroke="#000000" stroke-width="0.4036" stroke-miterlimit="10" d="M66.2,99.9h-9.7V61.4
			c0-9.4-0.5-15.9-1.4-19.4c-1.4-5.1-4-9-8-12c-3.9-2.9-8.6-4.4-14-4.4c-5.4,0-10,1.4-13.8,4.3c-3.8,2.9-6.4,6.6-7.8,11.3
			c-1,3.2-1.5,9.9-1.5,20.2v38.5H0.2V59.4c0-11.4,1.2-19.9,3.6-25.7c2.4-5.8,6.1-10.3,11-13.5c4.9-3.3,11-4.9,18.3-4.9
			s13.5,1.6,18.4,4.9c4.9,3.3,8.6,7.8,11,13.6c2.4,5.8,3.6,14.6,3.6,26.3V99.9z"/>
	</g>
	<g>
		<path fill="#000000" stroke="#000000" stroke-width="0.4036" stroke-miterlimit="10" d="M93.1,84.6C74,84.6,58.5,69.1,58.5,50
			S74,15.5,93.1,15.5c7.6,0,14.9,2.4,21,7.1l-6.1,8c-4.3-3.3-9.4-5-14.8-5c-13.5,0-24.5,11-24.5,24.5s11,24.5,24.5,24.5
			c9.9,0,18.7-5.9,22.5-14.9c1.2-2.9,1.9-6.1,1.9-9V0.2h10.1v50.3c0,4.2-1,8.8-2.7,12.9C119.5,76.3,107,84.6,93.1,84.6z"/>
	</g>
</g>
</svg>
